<svg xmlns="http://www.w3.org/2000/svg" viewBox="0 0 32 32">
  <!-- Outer ring -->
  <path fill="white" d="M16,2A14,14,0,1,0,30,16,14,14,0,0,0,16,2Zm0,3a11,11,0,1,1-11,11A11,11,0,0,1,16,5Z"/>
  <!-- Circle of friends - 3 dots + arcs at 120° each -->
  <!-- Person 1 (top) -->
  <circle fill="white" cx="16" cy="6.5" r="2.3"/>
  <path fill="none" stroke="white" stroke-width="2.2" stroke-linecap="round" d="M9.8,13.5 A7,7,0,0,1,22.2,13.5"/>
  <!-- Person 2 (bottom-left) -->
  <circle fill="white" cx="7.9" cy="19.75" r="2.3"/>
  <path fill="none" stroke="white" stroke-width="2.2" stroke-linecap="round" d="M14.9,26.5 A7,7,0,0,1,8.7,14.5"/>
  <!-- Person 3 (bottom-right) -->
  <circle fill="white" cx="24.1" cy="19.75" r="2.3"/>
  <path fill="none" stroke="white" stroke-width="2.2" stroke-linecap="round" d="M23.3,14.5 A7,7,0,0,1,17.1,26.5"/>
</svg>
